<?xml version="1.0" standalone="no"?>
<!DOCTYPE svg PUBLIC "-//W3C//DTD SVG 20010904//EN"
 "http://www.w3.org/TR/2001/REC-SVG-20010904/DTD/svg10.dtd">
<svg version="1.0" xmlns="http://www.w3.org/2000/svg"
 width="260.000000pt" height="260.000000pt" viewBox="0 0 260.000000 260.000000"
 preserveAspectRatio="xMidYMid meet">
<metadata>
Created by potrace 1.11, written by Peter Selinger 2001-2013
</metadata>
<g transform="translate(0.000000,260.000000) scale(0.100000,-0.100000)"
fill="#000000" stroke="none">
<path d="M1270 2386 c-41 -5 -66 -11 -55 -13 236 -45 401 -129 557 -282 193
-192 301 -446 293 -696 -4 -113 -7 -132 -36 -230 -69 -232 -265 -448 -505
-555 -208 -94 -462 -97 -644 -8 -60 30 -141 91 -185 140 -52 60 -128 209 -143
281 -14 67 -7 202 12 264 38 119 158 248 274 293 79 30 104 34 207 34 114 0
143 -5 221 -44 171 -84 226 -277 115 -404 -24 -27 -99 -62 -151 -71 l-45 -7
25 27 c44 48 30 153 -26 190 -103 68 -257 -33 -253 -166 3 -117 128 -209 282
-210 143 0 242 37 328 124 143 143 169 367 68 572 -43 87 -87 142 -163 199
-60 46 -151 87 -221 101 -16 3 -41 8 -55 10 -56 11 -203 5 -281 -11 -13 -2
-39 -7 -57 -10 -43 -7 -176 -48 -227 -69 -267 -112 -419 -251 -526 -480 -166
-354 -57 -709 288 -938 212 -140 451 -199 788 -192 189 4 208 6 350 40 520
123 917 480 1044 939 29 102 36 164 35 311 0 147 -4 176 -40 284 -78 234 -284
424 -561 517 -85 28 -83 28 -198 50 -96 19 -405 25 -515 10z"/>
</g>
</svg>
